<?xml version="1.0" encoding="utf-8"?>
<!-- Generator: Adobe Illustrator 25.0.1, SVG Export Plug-In . SVG Version: 6.00 Build 0)  -->
<svg version="1.1" id="Capa_1" xmlns="http://www.w3.org/2000/svg" xmlns:xlink="http://www.w3.org/1999/xlink" x="0px" y="0px"
	 viewBox="0 0 1080 1080" style="enable-background:new 0 0 1080 1080;" xml:space="preserve">
<style type="text/css">
	.st0{fill:#FFFFFF;stroke:#000000;stroke-miterlimit:10;}
	.st1{fill:#4A4F7B;}
	.st2{fill:#88C6DF;}
	.st3{fill:#FEFEFE;}
	.st4{fill:none;}
	.st5{font-family:'STHeitiSC-Light';}
	.st6{font-size:100px;}
	.st7{font-size:74px;}
	.st8{font-family:'Montserrat-Light';}
	.st9{font-size:50px;}
	.st10{fill:#FFFFFF;}
	.st11{stroke:#000000;stroke-miterlimit:10;}
</style>
<path class="st0" d="M1958.6,485.11h-671.63c-7.12,0-12.89-5.77-12.89-12.89V110.55c0-7.12,5.77-12.89,12.89-12.89h671.63
	c7.12,0,12.89,5.77,12.89,12.89v361.68C1971.48,479.34,1965.71,485.11,1958.6,485.11z"/>
<text transform="matrix(1 0 0 1 1331.3818 341.4404)" style="font-family:'MyriadPro-Regular'; font-size:12px;">t</text>
<g>
	<path class="st1" d="M371.38,533.88c1.73,3.68,11.5,5.85,5.82,10.21c-17.49,14.92-34.7,30.23-50.3,46.75
		c18.7-14.17,38.11-27.82,56.78-42.32c1.81-1.41,3.07-1.58,5.01-0.03c7.61,6.11,7.67,6.04-0.2,11.8
		c-30.85,22.9-62.36,44.99-92.86,68.31c-20.33,20.74-57.97,31.01-63.31,63.04c-1.5,9.01-10.57,15.05-19.59,13.65
		c-8.51-1.28-12.29-10.25-12.53-19.49c-0.58-9.66-5.95-16.44-13.34-21.83c-47.8-34.71-95.46-69.62-143.25-104.34
		c-6.9-4.98-6.78-5.14-0.51-10.57c9.26-8.03,7.39-7.56,17.45-0.5c20.71,14.3,39.99,30.6,58,48.03
		c-18.32-19.31-36.71-38.82-58.02-55.06c-3.75-2.9-3.74-4.02-0.05-7.12c14.22-19.02,65.03,48.04,75.21,59.69
		c18.04,22.78,37.89,44.08,60.19,62.69c-40.11-35.28-61.14-89.43-107.8-118.05c-3.14-1.25-2.91-5.44,1.18-3.46
		c56.5,28.97,82.67,92.17,127.43,134.1c3.2,2.71,5.44-2,6.7-4.43c36.37-54.05,101.61-79.3,139.16-132.22
		C365.98,526.94,367.94,530.42,371.38,533.88z"/>
	<path class="st1" d="M305.14,362.42c28.9,14.92,57.99,29.47,87.06,44.06c0.77,0.39,1.77,0.51,2.26,1.98
		c-8.63,2.32-17.19,4.63-25.86,6.7c-12.71,2.89-10.51,16.72-6.69,26.1c5.68,14.76,13.24,29.41,12.97,45.66
		c0.03,2.04-1.48,4.69,2,5.79c0.92,0.29,0.37,1.93,0.27,2.92c-0.63,6.47-1.84,12.83-3.97,18.99c-0.42,1.21-0.38,3.44-2.44,2.65
		c-1.71-0.65-0.02-2.22-0.02-3.38c0-0.46,0.25-0.92,0.55-1.95c-2.42,2.18-4.31,5.28-7.19,3.65c-1.98-1.11-4.04-1.32-5.95-2.2
		c-3.41-1.57-3.41-2.02-0.26-4.15c4.08-2.76,5.54-6.67,5.18-11.42c-0.1-1.26-0.67-2.88,1.15-3.18c2.37-0.39,2.58-1.97,2.97-3.83
		c3.67-17.52-0.31-33.37-10.12-48.09c-4.11-6.16-7.66-12.66-9.68-19.85c-0.47-1.68-1.29-2.05-2.81-1.63
		c-5.86,1.61-11.73,3.21-17.59,4.81c-2,0.83-4.12,1.22-6.17,1.87c-1.54,0.48-2.76-0.08-3.9-1.04l0.04,0.02
		c-2.63-1.55-5.42-2.82-7.79-4.79l0.08,0.05c-5.03-2.48-9.97-5.14-14.96-7.68c-1.84-0.78-3.69-1.55-5.53-2.33
		c-13.53-4.98-27.47-8.37-41.65-10.98c-10.54-2.02-21.29-1.64-29.06-2.55c18.37,0.75,41.01,5.62,58.85,12.42
		c1.79,0.69,3.64,1.32,4.81,3.01c3.33,1.48,6.66,2.95,9.99,4.43c3.19,1.08,6.02,2.82,8.74,4.77l-0.08-0.05
		c2.57,1.29,5.13,2.59,7.09,4.79c0.68,0.47,1.36,0.93,2.03,1.4c1.78,1.35,0.24,3.03,0.38,4.54c0.28,3.15-0.18,6.3-0.83,9.4
		c-0.01,0.4-0.01,0.8-0.02,1.2c-0.68,3.16-0.15,6.35-0.31,9.53c-0.05,1.03,0.01,2.19-1.24,2.5c-1.27,0.31-1.69-0.82-2.2-1.68
		c-2.69-3.57-5.99-6.5-9.53-9.19c-33.94-29.48-84.41-35.1-124.41-15.01c-2.51,1.21-3.55,1.32-3.05-1.96
		c0.53-3.45,0.62-6.98,1.21-10.42c0.51-2.99-0.47-4.66-3.1-6.26c-17.18-10.44-34.24-21.06-51.32-31.67c-0.81-0.5-2.3-0.63-2.18-1.88
		c0.11-1.23,1.52-1.17,2.47-1.47c43.4-13.76,86.82-27.51,130.2-41.33c2.56-0.82,4.65-0.57,7.03,0.63
		C270.1,344.95,287.36,354.31,305.14,362.42z"/>
	<path class="st2" d="M321.8,514.37c3.33-2.53,5.63-4.8,6.53-4.17c0.87,0.61-0.21,3.48-0.3,3.72c-0.92,2.38-2.51,3.93-6.82,7.03
		c-7.29,5.24-10.93,7.87-12.11,8.37c-3.03,1.28-3.47,3.42-3.05,6.28c1.06,7.05,1.69,14.14,1.56,21.28
		c-0.03,1.41,0.21,2.86-1.06,3.97c-1.27,1.1-2.69,2.84-4.17,2.49c-1.79-0.43-0.87-2.68-1.04-4.13c-0.85-7.32-1.48-14.66-3.05-21.89
		c-0.44-2.03-1.14-2.11-2.9-1.63c-7.61,2.09-15.1,4.59-22.85,6.18c-15.98,3.55-32.21,4.83-48.51,5.71
		c-1.76,0.08-2.14,1.03-2.14,2.54c-0.03,15.71-0.06,31.42-0.16,47.13c-0.01,2.05,0.8,2.67,2.77,2.7c9.36,0.13,18.62-0.92,27.88-2.06
		c2.14-0.26,5.42-1.37,6.12,0.2c0.84,1.89-2.21,3.26-3.86,4.6c-3.53,2.88-7.92,2.08-11.92,2.53c-6.04,0.67-12.16,0.7-18.25,0.87
		c-2.21,0.06-3.34,0.73-3.4,3.13c-0.22,8.81-0.53,17.62-0.86,26.43c-0.07,1.94,0.19,3.25,2.64,3.25c1.37,0,3.79-0.96,3.95,0.95
		c0.17,2.04-0.95,4.32-2.88,5.69c-1.36,0.96-3.95-0.43-4.46,2.2c-0.62,3.17-1.53,6.37-0.43,9.58c0.6,1.74,0.36,3.28-0.38,4.87
		c-3.11,6.19-8.3-0.35-10.54-4.61c0.16-0.17,0.32-0.5,0.48-0.5c2.07,0.02,5.06,1.65,5.91-0.77c0.98-2.79,0.74-6.17-0.59-9.12
		c-0.57-1.26-1.85-1.25-3.04-1.26c-2.86-0.03-5.72-0.15-8.57-0.09c-4.17,0.09-7.02-1.74-9.11-5.34c-1.16-2.01-0.76-2.54,1.31-2.44
		c5.04,0.23,10.09,0.39,15.13,0.8c3.01,0.24,3.95-0.93,3.63-3.79c-0.97-8.52-0.82-17.09-0.86-25.64c-0.01-2.27-0.82-3.3-3.19-3.31
		c-14.67-0.04-29.17-1.88-43.67-3.9c-4.04-0.56-4.84-4.34-7.25-6.48c-0.84-0.75,0.73-1.22,1.65-1.03
		c8.75,1.79,17.57,3.13,26.47,3.96c7.49,0.69,14.97,1.31,22.5,1.27c1.95-0.01,2.83-0.62,2.8-2.69c-0.28-15.69-0.52-31.39-0.71-47.08
		c-0.02-2.13-1.05-2.51-2.89-2.63c-5.42-0.34-10.83-0.93-16.25-1.3c-17.65-1.17-34.91-4.34-51.63-10.15
		c-3.25-1.13-4.49-0.64-5.07,3.02c-1.32,8.3-2.2,16.64-3.2,24.98c-5.31-2.73-6.43-5.12-5.77-10.7c0.81-6.8,0.62-13.7,1.86-20.47
		c0.17-3.43-2.84-3.57-6.88-5.84c-4.78-2.8-9.56-6.75-14.34-11.3c-1.02-1.01-2.56-2.61-2.21-4.24c2.64-7.49,14.03,6.76,20.63,9.3
		c2.11,1.06,4.25,0.67,4.82-2.36c3.78-15.49,10.42-30.2,19.39-43.36c1.52-2.31,1.08-3.8-1.39-4.84c-4.29-1.8-7.59-4.87-10.65-8.25
		c0.05-2,1.18-2.83,3.06-2.83c3.85,2.28,7.68,4.6,11.94,6.11c1.3,0.46,2.51,0.63,3.68,0.32c0.19-0.05,0.95-0.27,1.77-0.9
		c3.38-2.6,18.16-20.38,29.13-26.93c0.74-0.44,3.26-1.95,3.61-1.52c0.46,0.57-3.11,4.15-5.19,6.24
		c-20.76,21.3-25.85,26.45-19.42,27.66c22.02,2.04,38.01,3.5,41.16,3.88c0.5,0.06,2.03,0.26,3.07-0.65
		c0.74-0.64,4.38-34.45,4.84-35.51c0.39-0.89,0.37-2.34,1.67-2.27c1.37,0.08,1.72,1.53,1.85,2.6c0.68,4.3,2.37,25.36,3.44,31.51
		c0.71,4.06,1.14,4.6,5.6,4.26c13.88-0.75,27.61-2.34,41.2-5.33c4.27,0.78-4.59-11.34-10.38-18.04
		c-6.75-7.78-12.82-12.47-12.21-13.28c0.35-0.46,2.62,0.7,3.56,1.19c5.6,2.88,9.14,6.82,11.38,9.49
		c10.35,12.26,15.52,18.38,15.6,18.5c0.26,0.39,0.92,1.4,1.98,1.55c1.04,0.32,7.45-3.17,7.7-3.27c4.14-2.25,5.99-5.33,7.21-4.72
		c3.34,3.37-7.93,8.69-9.78,9.61c-1.1,1.47-0.82,3.68,0.11,4.77c6.86,9.49,11.76,20.02,15.96,30.86c1.58,4.07,2.63,8.37,3.87,12.57
		c0.67,2.26,1.11,2.91,1.9,3.39C309.59,523.63,318.45,516.91,321.8,514.37z"/>
	<path class="st1" d="M140.61,457.87c-1.31,0.42-2.24,1.33-3.06,2.39c-2.69,4.97-18.57,18.22-30.12,38.97
		c-9.93,17.82-10.91,33.05-11.5,32.9c22.84-153.37,231.23-133.46,241.53,2.5c-9.5-30.99-13.79-44.66-32.02-64.52
		C261.73,424.85,190.6,421.39,140.61,457.87z"/>
	<path class="st1" d="M223.21,663.6c-0.56,1.07-0.97,2.26-1.71,3.18c-1.04,1.29-0.83-0.38-1.23-0.65
		c17.71-68.78,88.49-96.6,136.79-140.59c0.46,1.86-0.67,2.7-1.34,3.69c-11.19,16.69-27.02,28.8-41.97,41.82
		C280.08,597.28,241.89,624.01,223.21,663.6z"/>
	<path class="st3" d="M358.18,494.63c-0.56-1.63-0.3-2.81,1.43-3.26c0.29-0.07,0.95,0.2,0.96,0.35
		C360.7,493.39,359.49,494,358.18,494.63z"/>
	<rect x="279.2" y="412.04" class="st4" width="843.56" height="290.14"/>
	<text transform="matrix(1 0 0 1 517.2843 491.6371)"><tspan x="0" y="0" class="st5 st6">Carlota </tspan><tspan x="-80.33" y="88.8" class="st5 st7">Garcia Sagues</tspan></text>
	<rect x="318.65" y="629.72" class="st4" width="759.9" height="273.56"/>
	<text transform="matrix(1 0 0 1 434.6787 666.8148)" class="st8 st9">-ENGLISH TRAINING-</text>
	<path class="st3" d="M221.81,507.94c0-7.58,0.05-15.16-0.03-22.74c-0.03-2.24,0.37-3.37,3.05-3.5c15.5-0.79,30.9-2.43,45.79-7.12
		c1.95-0.61,3.19,0.01,4.1,1.64c8.01,14.35,14.22,29.42,18.6,45.27c0.73,2.65,0.02,3.56-2.36,4.22c-14.62,4.05-29.5,6.55-44.62,7.74
		c-6.53,0.51-13.08,0.84-19.6,1.42c-3.53,0.32-4.96-0.73-4.81-4.56c0.29-7.44,0.08-14.91,0.08-22.36
		C221.94,507.94,221.88,507.94,221.81,507.94z"/>
	<path class="st3" d="M207.29,534.71c-21.31-0.81-42.32-2.86-62.81-8.7c-3.16-0.9-4.07-2.03-3.11-5.49
		c4.05-14.66,9.79-28.59,16.96-41.97c1.78-3.32,3.59-4.52,7.73-3.22c11.08,3.47,22.57,5.05,34.16,5.75c3.27,0.2,6.53,0.53,9.79,0.69
		c1.91,0.09,2.91,0.93,2.59,2.83c-1,5.77-0.41,11.58-0.57,17.38c-0.28,9.58-0.53,19.16-0.6,28.74
		C211.41,533.85,210.82,535.78,207.29,534.71z"/>
</g>
<g>
	<path class="st1" d="M1537.77,292.98c0.94,2.02,6.29,3.2,3.18,5.59c-9.57,8.16-18.99,16.54-27.52,25.58
		c10.23-7.75,20.85-15.22,31.07-23.16c0.99-0.77,1.68-0.87,2.74-0.01c4.16,3.34,4.2,3.3-0.11,6.46
		c-16.88,12.53-34.12,24.62-50.81,37.38c-11.13,11.35-31.72,16.97-34.64,34.49c-0.82,4.93-5.78,8.23-10.72,7.47
		c-4.66-0.7-6.72-5.61-6.86-10.66c-0.32-5.29-3.25-9-7.3-11.94c-26.16-18.99-52.23-38.1-78.39-57.09c-3.78-2.72-3.71-2.81-0.28-5.78
		c5.07-4.39,4.04-4.14,9.55-0.28c11.34,7.82,21.88,16.74,31.74,26.28c-10.03-10.57-20.09-21.24-31.75-30.13
		c-2.05-1.58-2.05-2.2-0.03-3.9c7.78-10.41,35.58,26.29,41.15,32.66c9.87,12.47,20.73,24.12,32.94,34.3
		c-21.95-19.3-33.46-48.94-58.99-64.6c-1.72-0.69-1.59-2.98,0.65-1.89c30.92,15.85,45.24,50.44,69.73,73.38
		c1.75,1.48,2.98-1.09,3.66-2.42c19.9-29.58,55.6-43.4,76.15-72.35C1534.81,289.18,1535.88,291.08,1537.77,292.98z"/>
	<path class="st1" d="M1501.52,199.15c15.81,8.17,31.73,16.13,47.64,24.11c0.42,0.21,0.97,0.28,1.24,1.08
		c-4.72,1.27-9.4,2.53-14.15,3.67c-6.96,1.58-5.75,9.15-3.66,14.28c3.11,8.07,7.24,16.09,7.1,24.98c0.02,1.11-0.81,2.57,1.1,3.17
		c0.5,0.16,0.2,1.05,0.15,1.6c-0.35,3.54-1.01,7.02-2.17,10.39c-0.23,0.66-0.21,1.88-1.33,1.45c-0.94-0.36-0.01-1.22-0.01-1.85
		c0-0.25,0.14-0.5,0.3-1.07c-1.32,1.19-2.36,2.89-3.93,2c-1.08-0.61-2.21-0.72-3.25-1.21c-1.86-0.86-1.87-1.11-0.14-2.27
		c2.23-1.51,3.03-3.65,2.83-6.25c-0.05-0.69-0.37-1.58,0.63-1.74c1.3-0.21,1.41-1.08,1.62-2.1c2.01-9.59-0.17-18.26-5.54-26.31
		c-2.25-3.37-4.19-6.93-5.3-10.86c-0.26-0.92-0.7-1.12-1.54-0.89c-3.21,0.88-6.42,1.76-9.63,2.63c-1.09,0.45-2.26,0.67-3.38,1.02
		c-0.84,0.27-1.51-0.05-2.13-0.57l0.02,0.01c-1.44-0.85-2.97-1.54-4.26-2.62l0.04,0.03c-2.75-1.36-5.45-2.81-8.19-4.2
		c-1.01-0.42-2.02-0.85-3.03-1.27c-7.41-2.73-15.03-4.58-22.79-6.01c-5.77-1.11-11.65-0.9-15.9-1.4c10.05,0.41,22.44,3.07,32.2,6.8
		c0.98,0.38,1.99,0.72,2.63,1.65c1.82,0.81,3.64,1.62,5.46,2.42c1.74,0.59,3.29,1.55,4.78,2.61l-0.04-0.03
		c1.41,0.71,2.81,1.42,3.88,2.62c0.37,0.26,0.74,0.51,1.11,0.77c0.98,0.74,0.13,1.66,0.21,2.48c0.15,1.72-0.1,3.45-0.45,5.14
		c0,0.22-0.01,0.44-0.01,0.66c-0.37,1.73-0.08,3.48-0.17,5.21c-0.03,0.57,0.01,1.2-0.68,1.37c-0.7,0.17-0.93-0.45-1.2-0.92
		c-1.47-1.95-3.28-3.56-5.22-5.03c-18.57-16.13-46.19-19.2-68.08-8.22c-1.38,0.66-1.95,0.72-1.67-1.07c0.29-1.89,0.34-3.82,0.66-5.7
		c0.28-1.64-0.26-2.55-1.69-3.43c-9.4-5.71-18.74-11.53-28.08-17.33c-0.44-0.28-1.26-0.35-1.19-1.03c0.06-0.67,0.83-0.64,1.35-0.81
		c23.75-7.53,47.51-15.05,71.25-22.62c1.4-0.45,2.55-0.31,3.84,0.34C1482.34,189.59,1491.79,194.71,1501.52,199.15z"/>
	<path class="st2" d="M1510.63,282.3c1.82-1.38,3.08-2.63,3.57-2.28c0.48,0.33-0.12,1.91-0.16,2.03c-0.5,1.3-1.38,2.15-3.73,3.85
		c-3.99,2.87-5.98,4.31-6.62,4.58c-1.66,0.7-1.9,1.87-1.67,3.44c0.58,3.86,0.92,7.74,0.85,11.65c-0.01,0.77,0.12,1.57-0.58,2.17
		c-0.7,0.6-1.47,1.56-2.28,1.36c-0.98-0.23-0.48-1.46-0.57-2.26c-0.47-4-0.81-8.02-1.67-11.98c-0.24-1.11-0.62-1.16-1.59-0.89
		c-4.16,1.14-8.26,2.51-12.51,3.38c-8.74,1.94-17.63,2.64-26.55,3.12c-0.96,0.04-1.17,0.57-1.17,1.39
		c-0.02,8.6-0.03,17.19-0.09,25.79c-0.01,1.12,0.44,1.46,1.52,1.48c5.12,0.07,10.19-0.5,15.26-1.13c1.17-0.14,2.97-0.75,3.35,0.11
		c0.46,1.03-1.21,1.78-2.11,2.52c-1.93,1.58-4.33,1.14-6.53,1.38c-3.31,0.37-6.65,0.39-9.99,0.48c-1.21,0.03-1.83,0.4-1.86,1.72
		c-0.12,4.82-0.29,9.64-0.47,14.46c-0.04,1.06,0.1,1.78,1.44,1.78c0.75,0,2.07-0.52,2.16,0.52c0.09,1.12-0.52,2.37-1.57,3.11
		c-0.74,0.53-2.16-0.23-2.44,1.2c-0.34,1.73-0.84,3.48-0.23,5.24c0.33,0.95,0.2,1.79-0.21,2.67c-1.7,3.39-4.54-0.19-5.77-2.52
		c0.09-0.1,0.18-0.27,0.26-0.27c1.13,0.01,2.77,0.9,3.23-0.42c0.53-1.53,0.41-3.37-0.32-4.99c-0.31-0.69-1.01-0.68-1.66-0.69
		c-1.56-0.02-3.13-0.08-4.69-0.05c-2.28,0.05-3.84-0.95-4.98-2.92c-0.64-1.1-0.42-1.39,0.72-1.34c2.76,0.13,5.52,0.22,8.28,0.44
		c1.65,0.13,2.16-0.51,1.99-2.07c-0.53-4.66-0.45-9.35-0.47-14.03c-0.01-1.24-0.45-1.81-1.74-1.81c-8.03-0.02-15.96-1.03-23.9-2.13
		c-2.21-0.31-2.65-2.37-3.97-3.55c-0.46-0.41,0.4-0.67,0.9-0.56c4.79,0.98,9.61,1.72,14.49,2.17c4.1,0.38,8.19,0.72,12.31,0.7
		c1.07-0.01,1.55-0.34,1.53-1.47c-0.15-8.59-0.29-17.18-0.39-25.76c-0.01-1.17-0.57-1.37-1.58-1.44c-2.97-0.19-5.93-0.51-8.89-0.71
		c-9.66-0.64-19.1-2.37-28.25-5.55c-1.78-0.62-2.46-0.35-2.77,1.65c-0.72,4.54-1.2,9.11-1.75,13.67c-2.91-1.49-3.52-2.8-3.16-5.86
		c0.44-3.72,0.34-7.49,1.02-11.2c0.09-1.87-1.56-1.95-3.77-3.2c-2.61-1.53-5.23-3.69-7.85-6.19c-0.56-0.55-1.4-1.43-1.21-2.32
		c1.44-4.1,7.68,3.7,11.29,5.09c1.16,0.58,2.33,0.37,2.64-1.29c2.07-8.48,5.7-16.53,10.61-23.73c0.83-1.27,0.59-2.08-0.76-2.65
		c-2.35-0.99-4.15-2.67-5.83-4.52c0.03-1.09,0.64-1.55,1.68-1.55c2.11,1.25,4.2,2.52,6.54,3.34c0.71,0.25,1.37,0.35,2.01,0.18
		c0.1-0.03,0.52-0.15,0.97-0.49c1.85-1.42,9.94-11.15,15.94-14.74c0.41-0.24,1.79-1.07,1.98-0.83c0.25,0.31-1.7,2.27-2.84,3.42
		c-11.36,11.66-14.15,14.47-10.62,15.14c12.05,1.12,20.8,1.91,22.52,2.12c0.27,0.03,1.11,0.14,1.68-0.35
		c0.41-0.35,2.4-18.85,2.65-19.43c0.21-0.49,0.2-1.28,0.91-1.24c0.75,0.04,0.94,0.84,1.01,1.42c0.37,2.35,1.29,13.88,1.88,17.24
		c0.39,2.22,0.62,2.52,3.06,2.33c7.59-0.41,15.11-1.28,22.54-2.91c2.34,0.42-2.51-6.2-5.68-9.87c-3.69-4.26-7.02-6.82-6.68-7.27
		c0.19-0.25,1.43,0.38,1.95,0.65c3.06,1.58,5,3.73,6.23,5.19c5.66,6.71,8.5,10.06,8.54,10.12c0.14,0.21,0.51,0.77,1.08,0.85
		c0.57,0.17,4.07-1.74,4.21-1.79c2.27-1.23,3.28-2.92,3.94-2.58c1.83,1.85-4.34,4.76-5.35,5.26c-0.6,0.81-0.45,2.02,0.06,2.61
		c3.75,5.19,6.43,10.96,8.73,16.89c0.86,2.23,1.44,4.58,2.12,6.88c0.37,1.24,0.61,1.59,1.04,1.85
		C1503.95,287.36,1508.8,283.69,1510.63,282.3z"/>
	<path class="st1" d="M1411.49,251.38c-0.72,0.23-1.23,0.73-1.68,1.31c-1.47,2.72-10.16,9.97-16.48,21.32
		c-5.44,9.75-5.97,18.09-6.29,18c12.5-83.92,126.53-73.03,132.17,1.37c-5.2-16.96-7.55-24.44-17.52-35.3
		C1477.77,233.31,1438.84,231.42,1411.49,251.38z"/>
	<path class="st1" d="M1456.68,363.96c-0.31,0.59-0.53,1.24-0.94,1.74c-0.57,0.7-0.46-0.21-0.67-0.36
		c9.69-37.64,48.42-52.86,74.85-76.93c0.25,1.02-0.36,1.48-0.73,2.02c-6.13,9.13-14.79,15.76-22.97,22.88
		C1487.81,327.67,1466.91,342.29,1456.68,363.96z"/>
	<path class="st3" d="M1530.54,271.5c-0.3-0.89-0.16-1.54,0.78-1.78c0.16-0.04,0.52,0.11,0.53,0.19
		C1531.92,270.82,1531.26,271.15,1530.54,271.5z"/>
	<rect x="1487.32" y="226.3" class="st4" width="461.6" height="158.77"/>
	<text transform="matrix(1 0 0 1 1617.6053 269.8596)"><tspan x="0" y="0" class="st5" style="font-size:54.7206px;">Carlota </tspan><tspan x="-43.96" y="48.59" class="st5" style="font-size:40.4932px;">Garcia Sagues</tspan></text>
	<rect x="1508.91" y="345.42" class="st4" width="415.82" height="149.7"/>
	<text transform="matrix(1 0 0 1 1572.4032 365.718)" class="st8" style="font-size:27.3603px;">-ENGLISH TRAINING-</text>
	<path class="st10" d="M1455.92,278.78c0-4.15,0.03-8.3-0.02-12.44c-0.01-1.23,0.2-1.84,1.67-1.92c8.48-0.43,16.91-1.33,25.06-3.9
		c1.07-0.34,1.74,0.01,2.24,0.9c4.38,7.85,7.78,16.1,10.18,24.77c0.4,1.45,0.01,1.95-1.29,2.31c-8,2.22-16.14,3.59-24.41,4.23
		c-3.57,0.28-7.16,0.46-10.73,0.78c-1.93,0.17-2.71-0.4-2.63-2.49c0.16-4.07,0.05-8.16,0.05-12.24
		C1455.99,278.78,1455.96,278.78,1455.92,278.78z"/>
	<path class="st10" d="M1447.97,293.43c-11.66-0.44-23.16-1.57-34.37-4.76c-1.73-0.49-2.23-1.11-1.7-3.01
		c2.22-8.02,5.35-15.64,9.28-22.97c0.97-1.82,1.96-2.47,4.23-1.76c6.06,1.9,12.35,2.77,18.7,3.15c1.79,0.11,3.57,0.29,5.36,0.38
		c1.04,0.05,1.59,0.51,1.41,1.55c-0.55,3.16-0.22,6.34-0.31,9.51c-0.15,5.24-0.29,10.48-0.33,15.73
		C1450.23,292.96,1449.91,294.02,1447.97,293.43z"/>
</g>
<path class="st0" d="M1958.6,967.27h-671.63c-7.12,0-12.89-5.77-12.89-12.89V592.71c0-7.12,5.77-12.89,12.89-12.89h671.63
	c7.12,0,12.89,5.77,12.89,12.89v361.68C1971.48,961.5,1965.71,967.27,1958.6,967.27z"/>
<g>
	<path class="st11" d="M1403.17,752.31l-2.82,2.17c-3.36-4.16-7.68-6.25-12.95-6.25c-4.3,0-8,1.51-11.11,4.53
		c-3.11,3.02-4.66,6.73-4.66,11.11c0,4.38,1.52,8.04,4.56,10.98c3.04,2.94,6.84,4.41,11.41,4.41c5.1,0,9.35-1.98,12.75-5.94
		l2.82,2.17c-1.78,2.35-4.03,4.14-6.75,5.37c-2.72,1.23-5.73,1.84-9.02,1.84c-5.74,0-10.45-1.81-14.11-5.44
		c-3.66-3.63-5.49-8.21-5.49-13.75c0-3.43,0.85-6.59,2.54-9.5c1.7-2.9,4.05-5.18,7.05-6.83c3.01-1.65,6.24-2.47,9.7-2.47
		c3.46,0,6.57,0.65,9.32,1.96C1399.17,747.98,1401.42,749.86,1403.17,752.31z"/>
	<path class="st11" d="M1436.52,755.03v26.75h-3.38v-4.58c-3.06,3.66-6.55,5.49-10.48,5.49c-3.93,0-7.25-1.4-9.95-4.21
		c-2.7-2.8-4.06-6.15-4.06-10.03s1.36-7.2,4.08-9.98c2.72-2.77,5.98-4.16,9.77-4.16c4.37,0,7.91,1.86,10.63,5.59v-4.89H1436.52z
		 M1433.35,768.53c0-3.06-1.02-5.63-3.07-7.73c-2.05-2.1-4.56-3.15-7.53-3.15c-2.97,0-5.48,1.08-7.53,3.25
		c-2.05,2.17-3.07,4.73-3.07,7.68c0,2.96,1.04,5.52,3.12,7.68c2.08,2.17,4.58,3.25,7.48,3.25c2.9,0,5.4-1.04,7.48-3.12
		C1432.3,774.31,1433.35,771.69,1433.35,768.53z"/>
	<path class="st11" d="M1442.97,755.03h3.53v3.88c0.94-1.58,1.86-2.74,2.75-3.48c0.89-0.74,1.88-1.11,2.97-1.11
		c1.09,0,2.19,0.3,3.3,0.91l-1.81,2.92c-0.5-0.3-1.02-0.45-1.56-0.45c-1.04,0-2.02,0.54-2.95,1.61c-0.92,1.07-1.6,2.46-2.04,4.16
		c-0.44,1.7-0.65,4.78-0.65,9.24v9.07h-3.53V755.03z"/>
	<path class="st11" d="M1458.94,744.7h3.43v37.08h-3.43V744.7z"/>
	<path class="st11" d="M1468.26,768.58c0-3.93,1.35-7.29,4.06-10.08c2.7-2.79,5.99-4.18,9.87-4.18c3.88,0,7.17,1.39,9.87,4.18
		c2.7,2.79,4.06,6.13,4.06,10.03c0,3.9-1.34,7.23-4.01,10c-2.67,2.77-5.97,4.16-9.9,4.16c-3.93,0-7.24-1.39-9.92-4.16
		C1469.6,775.76,1468.26,772.44,1468.26,768.58z M1492.64,768.63c0-2.96-1.03-5.52-3.1-7.68c-2.07-2.17-4.52-3.25-7.36-3.25
		c-2.84,0-5.28,1.08-7.33,3.25c-2.05,2.17-3.07,4.74-3.07,7.73c0,2.99,0.99,5.53,2.97,7.61c1.98,2.08,4.44,3.12,7.38,3.12
		c2.94,0,5.42-1.05,7.46-3.15C1491.63,774.17,1492.64,771.62,1492.64,768.63z"/>
	<path class="st11" d="M1509.02,777.55c0,0.91,0.12,1.44,0.35,1.61c0.23,0.17,0.84,0.25,1.81,0.25h2.07v2.92
		c-1.41,0.24-2.52,0.35-3.33,0.35c-1.51,0-2.62-0.37-3.32-1.11c-0.71-0.74-1.06-1.9-1.06-3.48v-20.15h-4.74v-2.92h4.74V744.7h3.48
		v10.33h5.44v2.92h-5.44V777.55z"/>
	<path class="st11" d="M1546.25,755.03v26.75h-3.38v-4.58c-3.06,3.66-6.55,5.49-10.48,5.49c-3.93,0-7.25-1.4-9.95-4.21
		c-2.7-2.8-4.06-6.15-4.06-10.03s1.36-7.2,4.08-9.98c2.72-2.77,5.98-4.16,9.77-4.16c4.37,0,7.91,1.86,10.63,5.59v-4.89H1546.25z
		 M1543.07,768.53c0-3.06-1.02-5.63-3.07-7.73c-2.05-2.1-4.56-3.15-7.53-3.15c-2.97,0-5.48,1.08-7.53,3.25
		c-2.05,2.17-3.07,4.73-3.07,7.68c0,2.96,1.04,5.52,3.12,7.68c2.08,2.17,4.58,3.25,7.48,3.25c2.9,0,5.4-1.04,7.48-3.12
		C1542.03,774.31,1543.07,771.69,1543.07,768.53z"/>
	<path class="st11" d="M1353.73,805.01l-2.05,1.98c-1.49-1.44-3.13-2.55-4.9-3.32c-1.78-0.77-3.61-1.16-5.5-1.16
		c-1.89,0-3.78,0.51-5.67,1.53c-1.89,1.02-3.36,2.39-4.42,4.12c-1.06,1.73-1.58,3.6-1.58,5.61c0,3.13,1.17,5.86,3.52,8.18
		c2.35,2.32,5.29,3.49,8.82,3.49c2.68,0,4.99-0.75,6.92-2.26c1.93-1.5,3.08-3.55,3.45-6.13h-8.54v-2.57h11.56
		c-0.07,4.25-1.34,7.56-3.8,9.94c-2.46,2.37-5.68,3.56-9.66,3.56c-4.57,0-8.23-1.4-10.98-4.21c-2.75-2.81-4.12-6.11-4.12-9.9
		c0-3.79,1.37-7.07,4.1-9.84c2.73-2.77,6.32-4.16,10.77-4.16C1346.1,799.86,1350.12,801.58,1353.73,805.01z"/>
	<path class="st11" d="M1379.68,807.51v19.8h-2.5v-3.39c-2.26,2.71-4.85,4.06-7.75,4.06c-2.91,0-5.36-1.04-7.36-3.11
		c-2-2.07-3-4.55-3-7.42c0-2.87,1.01-5.33,3.02-7.38s4.42-3.08,7.23-3.08c3.23,0,5.85,1.38,7.87,4.14v-3.62H1379.68z M1377.33,817.5
		c0-2.26-0.76-4.17-2.27-5.72c-1.52-1.55-3.37-2.33-5.57-2.33c-2.2,0-4.06,0.8-5.57,2.4c-1.52,1.6-2.27,3.5-2.27,5.69
		c0,2.19,0.77,4.08,2.31,5.69c1.54,1.6,3.39,2.4,5.54,2.4c2.15,0,3.99-0.77,5.54-2.31C1376.56,821.77,1377.33,819.83,1377.33,817.5z
		"/>
	<path class="st11" d="M1384.45,807.51h2.61v2.87c0.7-1.17,1.37-2.03,2.03-2.57c0.66-0.55,1.39-0.82,2.2-0.82
		c0.81,0,1.62,0.22,2.44,0.67l-1.34,2.16c-0.37-0.22-0.76-0.34-1.16-0.34c-0.77,0-1.5,0.4-2.18,1.19c-0.68,0.8-1.19,1.82-1.51,3.08
		c-0.32,1.26-0.48,3.54-0.48,6.84v6.71h-2.61V807.51z"/>
	<path class="st11" d="M1415.99,811.61l-2.01,1.27c-1.74-2.31-4.13-3.47-7.16-3.47c-2.39,0-4.39,0.76-6,2.29
		c-1.62,1.53-2.42,3.42-2.42,5.69c0,2.26,0.8,4.2,2.39,5.82c1.59,1.62,3.6,2.42,6.04,2.42c2.91,0,5.29-1.16,7.16-3.47l2.01,1.34
		c-0.99,1.44-2.33,2.55-4.01,3.32c-1.68,0.77-3.49,1.16-5.42,1.16c-3.06,0-5.61-1.01-7.66-3.02c-2.05-2.01-3.08-4.47-3.08-7.38
		c0-2.91,1.04-5.4,3.11-7.47s4.74-3.11,8-3.11c1.91,0,3.68,0.41,5.31,1.23C1413.87,809.04,1415.12,810.17,1415.99,811.61z"/>
	<path class="st11" d="M1419.57,801.99c0-0.57,0.21-1.07,0.61-1.49c0.41-0.42,0.91-0.63,1.49-0.63c0.58,0,1.08,0.21,1.49,0.62
		c0.41,0.41,0.61,0.91,0.61,1.49c0,0.58-0.21,1.08-0.61,1.49c-0.41,0.41-0.91,0.61-1.49,0.61c-0.58,0-1.08-0.21-1.49-0.63
		C1419.77,803.02,1419.57,802.54,1419.57,801.99z M1420.39,807.51h2.57v19.8h-2.57V807.51z"/>
	<path class="st11" d="M1447.94,807.51v19.8h-2.5v-3.39c-2.26,2.71-4.85,4.06-7.75,4.06c-2.91,0-5.36-1.04-7.36-3.11
		c-2-2.07-3-4.55-3-7.42c0-2.87,1.01-5.33,3.02-7.38c2.01-2.05,4.42-3.08,7.23-3.08c3.23,0,5.85,1.38,7.87,4.14v-3.62H1447.94z
		 M1445.59,817.5c0-2.26-0.76-4.17-2.27-5.72c-1.52-1.55-3.37-2.33-5.57-2.33c-2.2,0-4.06,0.8-5.57,2.4
		c-1.52,1.6-2.27,3.5-2.27,5.69c0,2.19,0.77,4.08,2.31,5.69c1.54,1.6,3.39,2.4,5.54,2.4c2.15,0,3.99-0.77,5.54-2.31
		C1444.82,821.77,1445.59,819.83,1445.59,817.5z"/>
	<path class="st11" d="M1460.65,822.31l2.27-1.34c1.59,2.93,3.44,4.4,5.56,4.4c1.37,0,2.54-0.43,3.5-1.3
		c0.97-0.87,1.45-1.95,1.45-3.24c0-1.02-0.41-2.05-1.23-3.09s-2.18-2.28-4.08-3.71c-1.9-1.43-3.18-2.5-3.84-3.21
		c-0.66-0.71-1.14-1.47-1.45-2.27c-0.31-0.81-0.47-1.62-0.47-2.44c0-1.74,0.61-3.21,1.85-4.42c1.23-1.2,2.78-1.81,4.64-1.81
		c1.47,0,2.75,0.37,3.84,1.1c1.09,0.73,2.15,1.82,3.17,3.26l-2.16,1.68c-0.7-0.94-1.42-1.73-2.16-2.35
		c-0.75-0.62-1.66-0.93-2.74-0.93c-1.08,0-1.96,0.32-2.65,0.97c-0.68,0.65-1.03,1.47-1.03,2.46c0,0.99,0.3,1.86,0.91,2.59
		c0.61,0.73,1.99,1.9,4.14,3.49c2.15,1.59,3.72,3.06,4.7,4.4c0.98,1.34,1.47,2.76,1.47,4.25c0,1.94-0.75,3.62-2.26,5.05
		c-1.5,1.43-3.25,2.14-5.24,2.14C1465.35,827.97,1462.61,826.09,1460.65,822.31z"/>
	<path class="st11" d="M1501.28,807.51v19.8h-2.5v-3.39c-2.26,2.71-4.85,4.06-7.75,4.06c-2.91,0-5.36-1.04-7.36-3.11
		c-2-2.07-3-4.55-3-7.42c0-2.87,1.01-5.33,3.02-7.38c2.01-2.05,4.42-3.08,7.23-3.08c3.23,0,5.85,1.38,7.87,4.14v-3.62H1501.28z
		 M1498.94,817.5c0-2.26-0.76-4.17-2.27-5.72c-1.52-1.55-3.37-2.33-5.57-2.33c-2.2,0-4.06,0.8-5.57,2.4
		c-1.52,1.6-2.27,3.5-2.27,5.69c0,2.19,0.77,4.08,2.31,5.69c1.54,1.6,3.39,2.4,5.54,2.4c2.15,0,3.99-0.77,5.54-2.31
		C1498.16,821.77,1498.94,819.83,1498.94,817.5z"/>
	<path class="st11" d="M1524.36,807.51h2.57v15.29c0,2.71-0.24,4.7-0.71,5.96c-0.47,1.27-1.16,2.32-2.05,3.17
		c-0.89,0.84-1.98,1.49-3.24,1.94c-1.27,0.45-2.66,0.67-4.18,0.67c-5.17,0-8.57-2.06-10.22-6.19h2.76c1.44,2.58,3.89,3.88,7.34,3.88
		c1.66,0,3.11-0.32,4.34-0.97c1.23-0.65,2.1-1.47,2.61-2.48c0.51-1.01,0.76-2.58,0.76-4.72v-0.86c-1.02,1.27-2.22,2.21-3.62,2.83
		c-1.39,0.62-2.86,0.93-4.4,0.93c-2.88,0-5.28-0.98-7.2-2.95c-1.91-1.96-2.87-4.27-2.87-6.93c0-2.76,1.02-5.13,3.06-7.12
		c2.04-1.99,4.5-2.98,7.4-2.98c2.89,0,5.44,1.32,7.62,3.95V807.51z M1524.47,817.09c0-2.16-0.73-3.98-2.2-5.44
		c-1.47-1.47-3.28-2.2-5.44-2.2c-2.29,0-4.19,0.79-5.7,2.37c-1.52,1.58-2.27,3.39-2.27,5.42c0,2.04,0.73,3.77,2.2,5.2
		c1.47,1.43,3.34,2.14,5.63,2.14c2.29,0,4.16-0.7,5.61-2.09C1523.75,821.1,1524.47,819.3,1524.47,817.09z"/>
	<path class="st11" d="M1549.11,827.3h-2.57v-3.54c-2.04,2.71-4.51,4.06-7.42,4.06c-1.49,0-2.83-0.4-4.03-1.21
		c-1.19-0.81-2.04-1.86-2.54-3.17c-0.5-1.31-0.75-3.22-0.75-5.76v-10.18h2.54v9.43c0,2.31,0.11,3.88,0.32,4.7
		c0.21,0.82,0.53,1.52,0.97,2.09c0.43,0.57,0.99,1.01,1.66,1.3s1.48,0.45,2.44,0.45c0.96,0,1.9-0.24,2.81-0.71
		c0.92-0.47,1.7-1.13,2.35-1.98c0.65-0.84,1.08-1.72,1.3-2.61c0.22-0.89,0.34-2.7,0.34-5.41v-7.27h2.57V827.3z"/>
	<path class="st11" d="M1571.45,820.89l2.16,1.12c-2.14,3.98-5.29,5.96-9.47,5.96c-2.98,0-5.44-1.02-7.38-3.08
		c-1.94-2.05-2.91-4.52-2.91-7.4c0-2.88,0.98-5.36,2.93-7.42c1.95-2.06,4.36-3.09,7.23-3.09c2.87,0,5.28,0.96,7.23,2.87
		c1.95,1.91,2.96,4.52,3.04,7.83h-17.82c0.07,2.39,0.83,4.31,2.26,5.76c1.43,1.45,3.16,2.18,5.2,2.18
		C1567.27,825.63,1569.78,824.05,1571.45,820.89z M1571.45,815.49c-0.35-1.89-1.22-3.37-2.61-4.44c-1.39-1.07-3-1.6-4.81-1.6
		c-3.73,0-6.16,2.01-7.31,6.04H1571.45z"/>
	<path class="st11" d="M1588.97,809.67l-1.64,1.68c-1.37-1.32-2.7-1.98-3.99-1.98c-0.85,0-1.55,0.27-2.12,0.8
		c-0.57,0.53-0.86,1.19-0.86,1.98c0,0.78,0.3,1.45,0.91,2.01c0.61,0.56,1.66,1.23,3.15,2.01c1.49,0.78,2.63,1.63,3.41,2.54
		c0.78,0.91,1.17,2.02,1.17,3.34c0,1.67-0.58,3.07-1.73,4.21c-1.16,1.14-2.58,1.71-4.27,1.71c-1.12,0-2.19-0.25-3.22-0.75
		c-1.03-0.5-1.91-1.19-2.63-2.09l1.6-1.79c1.32,1.47,2.7,2.2,4.14,2.2c1.02,0,1.89-0.34,2.61-1.01c0.72-0.67,1.08-1.46,1.08-2.37
		c0-0.91-0.32-1.65-0.95-2.24c-0.63-0.58-1.69-1.25-3.17-1.99c-1.48-0.75-2.58-1.56-3.32-2.44c-0.73-0.88-1.1-2.03-1.1-3.43
		c0-1.4,0.52-2.6,1.55-3.6c1.03-0.99,2.4-1.49,4.1-1.49C1585.39,806.99,1587.15,807.88,1588.97,809.67z"/>
</g>
<line class="st11" x1="1618.72" y1="655.14" x2="1618.72" y2="906.67"/>
<text transform="matrix(1 0 0 1 1718.4673 691.2169)"><tspan x="0" y="0" class="st11 st5" style="font-size:30px;">Los Lirios  </tspan><tspan x="-60.12" y="36" class="st11 st5" style="font-size:30px;">Jardines del Valle</tspan></text>
<text transform="matrix(1 0 0 1 1694.4255 785.856)" class="st11 st5" style="font-size:30px;">- Cordoba -</text>
<text transform="matrix(1 0 0 1 1647.0251 851.2752)" class="st11 st5" style="font-size:26px;">carlotags@gmail.com</text>
<text transform="matrix(1 0 0 1 1662.4751 900.0508)" class="st11 st5" style="font-size:25px;">Tel: 0351 - 157345859</text>
</svg>
