<svg xmlns="http://www.w3.org/2000/svg" viewBox="0 0 24.21 24.16"><defs><style>.cls-1{fill:#f4f4f4;}.cls-2{fill:#e8e8e8;}.cls-3{fill:#b84d42;}.cls-4{fill:#9c3829;}.cls-5{fill:#c15247;}.cls-6{fill:#ededed;}</style></defs><g id="Capa_2" data-name="Capa 2"><g id="ELEMENTS"><ellipse class="cls-1" cx="12.1" cy="12.08" rx="12.1" ry="12.08"/><path class="cls-2" d="M18.33,17.83H5.88a.92.92,0,0,1-.89-1V7.29a.91.91,0,0,1,.89-1H18.33a.92.92,0,0,1,.89,1v9.58A.93.93,0,0,1,18.33,17.83Z"/><path class="cls-3" d="M6.77,17.83H5.88a.92.92,0,0,1-.89-1V7.29a.89.89,0,1,1,1.78,0Z"/><path class="cls-4" d="M17.44,17.83h.89a.93.93,0,0,0,.89-1V7.29a.89.89,0,1,0-1.78,0Z"/><path class="cls-5" d="M18.84,8.08a1,1,0,0,0,.22-1.33.85.85,0,0,0-1.24-.24L12.1,11h0L6.39,6.51a.85.85,0,0,0-1.24.24,1,1,0,0,0,.22,1.33h0l0,0,6.76,5.3m6.76-5.3-6.76,5.3"/><path class="cls-6" d="M18.33,6.34a.82.82,0,0,0-.51.17L12.1,11h0L6.39,6.51a.87.87,0,0,0-.51-.17Z"/></g></g></svg>