<svg xmlns="http://www.w3.org/2000/svg" xmlns:xlink="http://www.w3.org/1999/xlink" viewBox="0 0 24.13 24.57"><defs><style>.cls-1{fill:url(#Degradado_sin_nombre_8);}.cls-2,.cls-3{fill:#fff;}.cls-3{fill-rule:evenodd;}</style><linearGradient id="Degradado_sin_nombre_8" x1="20.67" y1="3.67" x2="3.46" y2="20.89" gradientUnits="userSpaceOnUse"><stop offset="0" stop-color="#60fc7c"/><stop offset="1" stop-color="#4ab161"/></linearGradient></defs><g id="Capa_2" data-name="Capa 2"><g id="ELEMENTS"><ellipse class="cls-1" cx="12.06" cy="12.28" rx="12.06" ry="12.28"/><path class="cls-2" d="M4.94,19.12,6,15.3a7.14,7.14,0,0,1-.87-3.41A7,7,0,0,1,12,4.83a7.06,7.06,0,0,1,0,14.11,6.84,6.84,0,0,1-3.3-.85Zm4-2.46.24.14a5.51,5.51,0,0,0,2.87.81,5.72,5.72,0,1,0-5.62-5.72,5.78,5.78,0,0,0,.82,3l.15.24-.57,2.13Z"/><path class="cls-3" d="M15,12.91a1.16,1.16,0,0,0-1-.23c-.26.11-.42.52-.59.73a.24.24,0,0,1-.32.07,4.49,4.49,0,0,1-2.24-2,.29.29,0,0,1,0-.39,1.51,1.51,0,0,0,.41-.67,1.62,1.62,0,0,0-.18-.8c-.14-.29-.29-.72-.58-.88a.77.77,0,0,0-.86.13,1.81,1.81,0,0,0-.61,1.41,1.61,1.61,0,0,0,.06.44,3.6,3.6,0,0,0,.42,1,7.15,7.15,0,0,0,.44.68,6.68,6.68,0,0,0,1.91,1.8,5.39,5.39,0,0,0,1.18.58A2.57,2.57,0,0,0,14.5,15a1.64,1.64,0,0,0,1.25-.95.73.73,0,0,0,.06-.48C15.74,13.27,15.3,13.07,15,12.91Z"/></g></g></svg>